{"glyphs":{":":{"x_min":0,"x_max":175,"ha":175,"o":"m 65 270 q 65 278 71 284 q 77 290 85 290 q 93 290 99 284 q 105 278 105 270 q 105 262 99 256 q 93 250 85 250 q 77 250 71 256 q 65 262 65 270 z m 65 20 q 65 28 71 34 q 77 40 85 40 q 93 40 99 34 q 105 28 105 20 q 105 12 99 6 q 93 0 85 0 q 77 0 71 6 q 65 12 65 20 z"},"$":{"x_min":0,"x_max":567,"ha":567,"o":"m 372 546 l 372 653 q 353 667 322 678 q 290 688 245 690 l 245 380 q 281 369 318 357 q 354 345 383 324 q 412 304 430 271 q 449 238 450 186 q 451 142 435 107 q 419 72 391 46 q 363 21 326 7 q 288 -7 245 -8 l 245 -68 l 232 -68 l 232 -8 q 193 -7 162 1 q 132 9 109 20 q 86 31 70 43 q 55 55 46 64 l 46 164 l 60 164 l 60 74 q 88 45 130 26 q 172 7 232 6 l 232 367 q 201 376 172 386 q 143 397 120 414 q 97 430 82 454 q 68 479 66 517 q 64 550 73 582 q 82 615 102 642 q 122 669 154 686 q 187 703 232 704 l 232 764 l 245 764 l 245 704 q 277 703 316 694 q 356 686 386 660 l 386 546 z m 436 182 q 436 230 420 261 q 403 292 376 312 q 349 331 314 342 q 280 353 245 363 l 245 6 q 282 7 316 20 q 351 34 378 56 q 404 79 420 111 q 436 143 436 182 z m 80 530 q 80 494 92 470 q 105 446 126 430 q 147 413 174 402 q 202 392 232 383 l 232 690 q 194 689 166 676 q 137 662 118 640 q 99 617 90 588 q 80 560 80 530 z"},"?":{"x_min":0,"x_max":452,"ha":452,"o":"m 44 596 q 41 597 38 598 q 34 598 31 599 q 51 657 101 694 q 151 732 216 732 q 257 732 293 716 q 329 701 356 674 q 382 648 397 612 q 412 577 412 537 q 412 483 386 442 q 359 402 314 370 q 294 356 278 346 q 261 337 248 325 q 236 313 229 294 q 222 275 222 242 l 222 164 l 208 164 l 208 261 q 208 292 220 310 q 231 329 250 344 q 268 358 292 372 q 315 387 339 408 q 370 435 384 468 q 398 500 398 537 q 398 576 384 609 q 370 642 346 666 q 321 691 288 704 q 254 718 216 718 q 186 718 159 709 q 132 700 109 684 q 86 668 70 646 q 53 623 44 596 z m 215 25 q 208 25 202 31 q 196 37 196 45 q 196 54 202 60 q 208 65 215 65 q 223 65 229 60 q 235 54 235 45 q 235 37 229 31 q 223 25 215 25 z"},"<":{"x_min":0,"x_max":680,"ha":680,"o":"m 553 1 l 553 -15 q 443 48 334 112 q 225 175 115 238 q 225 301 334 364 q 443 428 553 491 l 553 475 q 450 415 347 356 q 244 298 141 238 q 244 178 347 120 q 450 61 553 1 z"},"'":{"x_min":0,"x_max":147,"ha":147,"o":"m 67 472 l 67 720 l 85 720 q 84 657 83 596 q 82 535 81 472 z"},"=":{"x_min":0,"x_max":708,"ha":708,"o":"m 606 164 l 606 150 l 100 150 l 100 164 z m 606 358 l 606 344 l 100 344 l 100 358 z"},"a":{"x_min":0,"x_max":532,"ha":532,"o":"m 35 188 q 35 228 50 264 q 65 300 92 326 q 118 352 153 368 q 188 383 229 383 q 291 383 340 348 q 388 314 410 260 q 410 289 411 318 q 412 346 414 375 l 424 375 l 424 14 l 497 14 l 497 0 l 410 0 l 410 54 q 410 70 410 86 q 411 101 411 117 q 400 90 382 68 q 364 45 340 28 q 317 12 288 3 q 260 -6 229 -6 q 188 -6 153 9 q 118 24 92 50 q 65 77 50 112 q 35 147 35 188 z m 49 188 q 49 150 63 118 q 77 85 102 60 q 126 36 158 22 q 191 8 229 8 q 266 8 299 22 q 332 36 357 60 q 382 85 396 118 q 410 150 410 188 q 410 225 396 258 q 382 291 357 316 q 332 341 299 355 q 266 369 229 369 q 191 369 158 355 q 126 341 102 316 q 77 291 63 258 q 49 225 49 188 z"},"L":{"x_min":0,"x_max":566,"ha":566,"o":"m 35 14 l 112 14 l 112 686 l 35 686 l 35 700 l 209 700 l 209 686 l 126 686 l 126 14 l 517 14 l 517 154 l 531 154 l 531 0 l 35 0 z"},"3":{"x_min":0,"x_max":515,"ha":515,"o":"m 178 361 l 390 636 l 117 636 l 117 568 l 103 568 l 103 650 l 422 650 l 223 398 q 268 400 308 386 q 349 371 380 344 q 410 317 428 278 q 446 240 446 195 q 446 153 430 116 q 414 79 386 52 q 358 24 321 8 q 284 -8 242 -8 q 197 -8 159 10 q 121 28 93 58 l 103 71 q 127 42 162 24 q 197 6 239 6 q 278 6 314 21 q 349 36 375 62 q 401 88 416 122 q 432 157 432 195 q 432 234 416 268 q 401 303 375 328 q 349 354 314 369 q 278 384 239 384 q 223 384 208 378 q 192 372 178 361 z"},";":{"x_min":0,"x_max":201,"ha":201,"o":"m 88 270 q 88 278 94 284 q 100 290 108 290 q 116 290 122 284 q 128 278 128 270 q 128 262 122 256 q 116 250 108 250 q 100 250 94 256 q 88 262 88 270 z m 112 86 q 90 34 69 -17 q 48 -68 26 -120 l 12 -120 q 32 -68 50 -17 q 69 34 89 86 z"},"J":{"x_min":0,"x_max":255,"ha":255,"o":"m 35 700 l 220 700 l 220 90 q 220 34 206 -8 q 191 -51 166 -80 q 140 -109 106 -125 q 73 -141 35 -142 l 35 -128 q 72 -126 103 -110 q 134 -95 157 -66 q 180 -38 193 2 q 206 42 206 93 l 206 686 l 35 686 z"},"V":{"x_min":0,"x_max":844,"ha":844,"o":"m 35 700 l 209 700 l 209 686 l 133 686 q 203 519 273 355 q 343 191 413 25 l 422 0 l 431 25 q 501 191 571 355 q 641 519 711 686 l 635 686 l 635 700 l 809 700 l 809 686 l 726 686 q 650 505 574 326 q 498 148 422 -32 q 346 148 270 326 q 193 505 117 686 l 35 686 z"},"\"":{"x_min":0,"x_max":293,"ha":293,"o":"m 196 472 l 196 720 l 214 720 q 213 657 212 596 q 211 535 210 472 z m 63 472 l 63 720 l 81 720 q 80 657 79 596 q 78 535 77 472 z"},"7":{"x_min":0,"x_max":469,"ha":469,"o":"m 415 650 l 123 0 l 105 0 l 392 636 l 28 636 l 28 568 l 14 568 l 14 650 z"},"S":{"x_min":0,"x_max":478,"ha":478,"o":"m 46 64 l 46 164 l 60 164 l 60 74 q 89 45 132 26 q 174 6 236 6 q 275 6 311 18 q 347 31 374 54 q 402 77 419 110 q 436 142 436 182 q 436 228 420 258 q 405 289 380 308 q 355 328 322 340 q 290 351 256 360 q 222 370 189 380 q 156 391 130 408 q 103 424 86 450 q 68 476 66 517 q 64 550 74 584 q 83 617 104 644 q 125 671 158 688 q 191 704 238 704 q 254 704 274 702 q 293 700 312 696 q 332 691 351 682 q 370 673 386 660 l 386 546 l 372 546 l 372 653 q 352 668 318 679 q 284 690 236 690 q 197 690 168 676 q 138 663 118 640 q 99 618 90 590 q 80 561 80 530 q 80 476 107 448 q 134 419 174 402 q 215 386 262 375 q 310 364 352 344 q 393 323 421 287 q 449 251 450 186 q 451 142 434 106 q 418 70 389 44 q 360 19 321 6 q 282 -8 238 -8 q 198 -8 166 0 q 135 8 112 20 q 88 31 72 43 q 55 55 46 64 z"},"}":{"x_min":0,"x_max":320,"ha":320,"o":"m 290 311 l 290 287 q 258 285 242 264 q 226 244 219 216 q 212 189 212 161 q 211 133 211 116 l 211 -30 q 211 -76 204 -100 q 196 -125 184 -136 q 172 -146 156 -147 q 141 -148 125 -148 l 88 -148 l 88 -134 l 145 -134 q 176 -134 186 -108 q 197 -82 197 -22 l 197 165 q 197 199 204 222 q 211 245 221 260 q 231 276 242 285 q 254 294 263 299 q 250 306 238 316 q 226 326 217 344 q 208 363 202 393 q 197 423 197 470 l 197 620 q 197 680 186 706 q 176 732 145 732 l 88 732 l 88 746 l 125 746 q 141 746 156 744 q 172 743 184 732 q 196 722 204 698 q 211 674 211 628 l 211 482 q 211 470 211 454 q 211 437 213 418 q 215 399 219 380 q 223 362 232 347 q 241 332 255 322 q 269 312 290 311 z"},"Z":{"x_min":0,"x_max":629,"ha":629,"o":"m 594 174 l 594 0 l 35 0 l 35 14 l 545 686 l 52 686 l 52 735 l 68 735 l 68 700 l 565 700 l 565 686 l 55 14 l 580 14 l 580 174 z"},"x":{"x_min":0,"x_max":488,"ha":488,"o":"m 35 375 l 209 375 l 209 361 l 121 361 l 240 198 l 357 361 l 279 361 l 279 375 l 453 375 l 453 361 l 374 361 l 248 186 q 280 142 311 100 q 342 58 374 14 l 453 14 l 453 0 l 279 0 l 279 14 l 358 14 q 328 56 298 96 q 269 135 240 175 q 211 134 182 94 q 154 54 125 14 l 209 14 l 209 0 l 35 0 l 35 14 l 107 14 q 139 57 169 100 q 199 143 231 187 q 199 231 167 274 q 135 316 103 361 l 35 361 z"},")":{"x_min":0,"x_max":400,"ha":400,"o":"m 279 292 q 279 217 265 149 q 251 81 228 23 q 205 -35 175 -82 q 145 -130 114 -163 q 113 -157 112 -152 q 112 -146 111 -140 q 140 -107 168 -62 q 195 -17 217 38 q 239 93 252 157 q 265 221 265 292 q 265 363 252 427 q 239 491 217 546 q 195 601 168 646 q 140 691 111 724 q 112 730 112 736 q 113 741 114 747 q 145 714 175 666 q 205 619 228 561 q 251 503 265 435 q 279 367 279 292 z"},"&":{"x_min":0,"x_max":700,"ha":700,"o":"m 481 375 l 601 375 l 601 361 l 495 361 l 495 274 q 495 249 496 224 q 496 200 494 176 q 491 152 485 129 q 479 106 466 84 l 525 -11 l 514 -19 l 457 72 q 431 36 390 14 q 349 -7 300 -7 q 259 -7 224 8 q 189 23 162 50 q 136 76 121 111 q 106 146 106 187 q 106 223 118 256 q 131 288 152 314 q 174 339 204 356 q 234 373 269 379 l 197 496 q 179 526 172 558 q 164 590 169 621 q 174 652 192 679 q 210 706 243 726 q 271 743 300 746 q 330 750 358 745 q 386 740 410 729 q 435 718 454 706 l 448 693 q 425 706 401 717 q 377 728 352 733 q 327 738 302 734 q 276 731 251 715 q 220 695 203 670 q 186 645 182 618 q 177 590 184 560 q 191 531 208 504 l 457 98 q 468 118 474 140 q 481 162 481 187 z m 120 187 q 120 149 134 116 q 148 84 172 60 q 197 35 230 21 q 262 7 300 7 q 347 7 386 28 q 425 50 449 85 l 277 366 q 244 362 215 346 q 186 331 165 307 q 144 283 132 252 q 120 221 120 187 z"},"_":{"x_min":0,"x_max":600,"ha":600,"o":"m 500 0 l 100 0 l 100 14 l 500 14 z"},"v":{"x_min":0,"x_max":590,"ha":590,"o":"m 35 375 l 196 375 l 196 361 l 122 361 q 166 273 210 184 q 253 96 298 8 q 339 90 384 180 q 429 270 474 361 l 416 361 l 416 375 l 555 375 l 555 361 l 489 361 q 441 264 394 169 q 346 74 298 -23 q 250 74 202 169 q 155 264 107 361 l 35 361 z"},"O":{"x_min":0,"x_max":786,"ha":786,"o":"m 35 349 q 35 423 63 488 q 91 554 140 602 q 188 651 253 680 q 318 708 392 708 q 466 708 532 680 q 597 651 646 602 q 694 554 722 488 q 751 423 751 349 q 751 275 722 210 q 694 145 646 96 q 597 48 532 20 q 466 -8 392 -8 q 318 -8 253 20 q 188 48 140 96 q 91 145 63 210 q 35 275 35 349 z m 49 348 q 49 277 76 215 q 103 153 149 106 q 195 60 257 33 q 319 6 389 6 q 460 6 524 33 q 587 60 634 106 q 682 153 710 216 q 737 278 737 349 q 737 420 710 482 q 682 545 635 592 q 588 639 526 666 q 463 694 392 694 q 321 694 258 666 q 196 639 150 592 q 103 545 76 482 q 49 419 49 348 z"},"(":{"x_min":0,"x_max":394,"ha":394,"o":"m 147 292 q 147 367 161 435 q 175 503 198 561 q 221 619 250 666 q 280 714 312 747 q 313 741 314 736 q 314 730 315 724 q 286 691 258 646 q 231 601 209 546 q 187 491 174 427 q 161 363 161 292 q 161 221 174 157 q 187 93 209 38 q 231 -17 258 -62 q 286 -107 315 -140 q 314 -146 314 -152 q 313 -157 312 -163 q 280 -130 250 -82 q 221 -35 198 23 q 175 81 161 149 q 147 217 147 292 z"},"C":{"x_min":0,"x_max":610,"ha":610,"o":"m 561 546 l 561 649 q 523 671 480 682 q 437 694 392 694 q 321 694 258 666 q 196 639 150 592 q 103 545 76 482 q 49 419 49 348 q 49 277 76 215 q 103 153 149 106 q 195 60 257 33 q 319 6 389 6 q 437 6 482 18 q 526 31 565 54 l 574 42 q 534 19 488 6 q 443 -8 392 -8 q 318 -8 253 20 q 188 48 140 96 q 91 145 63 210 q 35 275 35 349 q 35 423 63 488 q 91 554 140 602 q 188 651 253 680 q 318 708 392 708 q 443 708 488 695 q 534 682 575 658 l 575 546 z"},"W":{"x_min":0,"x_max":1220,"ha":1220,"o":"m 35 700 l 209 700 l 209 686 l 133 686 q 202 519 272 354 q 341 190 413 25 l 422 0 q 462 108 508 214 q 555 319 600 425 q 573 490 546 555 q 518 620 490 686 l 411 686 l 411 700 l 585 700 l 585 686 l 505 686 q 574 519 644 354 q 713 190 785 25 l 794 0 l 803 25 q 873 191 943 355 q 1013 519 1083 686 l 1011 686 l 1011 700 l 1185 700 l 1185 686 l 1098 686 q 1022 505 946 326 q 870 148 794 -32 l 617 385 l 608 407 q 560 297 514 188 q 469 78 422 -32 q 346 148 270 326 q 193 505 117 686 l 35 686 z"},"A":{"x_min":0,"x_max":828,"ha":828,"o":"m 35 14 l 109 14 q 185 194 262 372 q 338 551 414 732 q 490 551 566 372 q 642 194 718 14 l 793 14 l 793 0 l 619 0 l 619 14 l 703 14 q 671 89 639 164 q 607 240 575 316 l 253 316 q 221 240 189 164 q 157 89 125 14 l 209 14 l 209 0 l 35 0 z m 423 675 l 414 700 q 413 698 412 694 q 411 691 409 686 q 407 681 405 675 q 371 587 334 502 q 296 417 259 330 l 569 330 z"},"f":{"x_min":0,"x_max":281,"ha":281,"o":"m 35 14 l 96 14 l 96 361 l 35 361 l 35 375 l 96 375 l 96 518 q 96 573 110 616 q 125 659 150 688 q 176 717 210 732 q 243 748 281 750 l 281 736 q 247 736 216 721 q 185 706 162 678 q 138 650 124 610 q 110 571 110 522 l 110 375 l 240 375 l 240 361 l 110 361 l 110 14 l 209 14 l 209 0 l 35 0 z"},"Q":{"x_min":0,"x_max":808,"ha":808,"o":"m 49 348 q 49 277 76 215 q 103 153 149 106 q 195 60 257 33 q 319 6 389 6 q 460 6 524 33 q 587 60 634 106 q 682 153 710 216 q 737 278 737 349 q 737 420 710 482 q 682 545 635 592 q 588 639 526 666 q 463 694 392 694 q 321 694 258 666 q 196 639 150 592 q 103 545 76 482 q 49 419 49 348 z m 35 349 q 35 423 63 488 q 91 554 140 602 q 188 651 253 680 q 318 708 392 708 q 466 708 532 680 q 597 651 646 602 q 694 554 722 488 q 751 423 751 349 q 751 291 734 238 q 716 186 685 142 q 654 99 610 66 q 567 33 516 14 l 773 14 l 773 0 l 466 0 q 428 -8 392 -8 q 318 -8 253 20 q 188 48 140 96 q 91 145 63 210 q 35 275 35 349 z"},"w":{"x_min":0,"x_max":860,"ha":860,"o":"m 686 375 l 825 375 l 825 361 l 761 361 q 713 264 666 169 q 618 74 570 -23 l 434 251 l 298 -23 q 250 74 202 169 q 155 264 107 361 l 35 361 l 35 375 l 196 375 l 196 361 l 122 361 q 166 272 210 184 q 253 96 298 8 q 330 73 362 137 q 394 201 426 266 q 414 289 402 313 q 390 337 379 361 l 305 361 l 305 375 l 466 375 l 466 361 l 394 361 q 438 272 482 184 q 525 96 570 8 q 615 97 658 184 q 701 272 746 361 l 686 361 z"},"-":{"x_min":0,"x_max":300,"ha":300,"o":"m 53 184 l 53 198 l 237 198 l 237 184 z"},"E":{"x_min":0,"x_max":571,"ha":571,"o":"m 35 14 l 117 14 l 117 686 l 35 686 l 35 700 l 522 700 l 522 546 l 508 546 l 508 686 l 131 686 l 131 360 l 483 360 l 483 346 l 131 346 l 131 14 l 522 14 l 522 154 l 536 154 l 536 0 l 35 0 z"},"s":{"x_min":0,"x_max":315,"ha":315,"o":"m 69 91 l 69 32 q 92 15 120 10 q 147 6 172 6 q 187 6 204 12 q 221 18 236 30 q 250 41 260 58 q 270 75 270 98 q 270 129 255 146 q 240 163 218 172 q 196 182 170 189 q 143 196 121 206 q 99 215 84 232 q 69 249 69 280 q 69 304 78 322 q 86 340 100 353 q 115 366 133 372 q 151 379 170 379 q 170 379 182 379 q 194 379 210 376 q 225 373 242 367 q 258 361 269 349 l 269 284 l 255 284 l 255 343 q 246 352 232 356 q 218 361 204 363 q 191 365 180 365 q 170 365 168 365 q 155 365 140 361 q 126 357 113 348 q 100 338 92 322 q 83 307 83 285 q 82 256 97 240 q 112 225 134 216 q 157 206 183 200 q 209 193 232 182 q 254 171 269 152 q 284 134 284 101 q 284 82 277 62 q 270 43 256 28 q 241 12 220 2 q 198 -8 168 -8 q 163 -8 150 -7 q 136 -6 119 -3 q 102 0 84 7 q 67 14 55 26 l 55 91 z"},">":{"x_min":0,"x_max":650,"ha":650,"o":"m 115 -15 l 115 1 q 218 61 321 120 q 424 178 527 238 q 424 298 321 356 q 218 415 115 475 l 115 491 q 225 428 334 364 q 443 301 553 238 q 443 175 334 112 q 225 48 115 -15 z"},"l":{"x_min":0,"x_max":244,"ha":244,"o":"m 35 14 l 107 14 l 107 736 l 34 736 l 34 750 l 121 750 l 121 14 l 209 14 l 209 0 l 35 0 z"},"8":{"x_min":0,"x_max":510,"ha":510,"o":"m 122 511 q 122 486 132 465 q 142 444 160 428 q 178 413 202 404 q 226 396 254 396 q 281 396 304 404 q 328 413 346 428 q 363 444 372 465 q 382 486 382 511 q 382 538 372 562 q 363 586 346 604 q 328 622 304 633 q 281 644 254 644 q 226 644 202 633 q 178 622 160 604 q 142 586 132 562 q 122 538 122 511 z m 67 195 q 67 157 82 122 q 96 88 121 62 q 146 36 180 20 q 214 5 253 5 q 293 5 328 20 q 363 36 389 62 q 415 88 430 122 q 446 157 446 195 q 446 234 430 268 q 415 301 389 326 q 363 352 328 366 q 293 381 253 381 q 214 381 180 366 q 146 352 121 326 q 96 301 82 268 q 67 234 67 195 z m 53 195 q 53 230 64 262 q 76 293 96 318 q 116 344 144 362 q 171 381 204 389 q 162 403 135 438 q 108 472 108 518 q 108 547 120 572 q 131 598 150 617 q 170 636 196 647 q 222 658 252 658 q 282 658 308 646 q 334 635 354 616 q 373 596 384 570 q 396 544 396 514 q 396 470 370 436 q 345 403 304 389 q 337 381 366 363 q 394 345 415 320 q 436 294 448 262 q 460 231 460 195 q 460 153 444 116 q 427 79 400 52 q 372 24 334 8 q 297 -8 255 -8 q 213 -8 176 8 q 140 24 112 52 q 85 79 69 116 q 53 153 53 195 z"},"\\":{"x_min":0,"x_max":320,"ha":320,"o":"m 31 736 q 101 546 170 358 q 239 171 309 -19 l 295 -19 q 225 171 156 358 q 87 546 17 736 z"},"e":{"x_min":0,"x_max":435,"ha":435,"o":"m 229 369 q 184 369 146 348 q 109 328 84 295 q 60 262 52 220 q 43 178 56 135 q 137 168 218 200 q 299 233 380 266 q 360 312 320 340 q 279 369 229 369 z m 398 259 q 313 224 230 190 q 146 157 61 122 q 81 71 126 40 q 171 8 229 8 q 265 8 297 21 q 329 34 353 57 q 355 54 358 52 q 360 49 362 46 q 336 22 302 8 q 268 -6 229 -6 q 188 -6 153 9 q 118 24 92 50 q 65 77 50 112 q 35 147 35 188 q 35 228 50 264 q 65 300 92 326 q 118 352 153 368 q 188 383 229 383 q 287 383 332 348 q 378 314 398 259 z"},"b":{"x_min":0,"x_max":532,"ha":532,"o":"m 35 14 l 108 14 l 108 736 l 35 736 l 35 750 l 122 750 l 122 321 l 122 260 q 132 287 150 310 q 168 332 192 348 q 215 365 244 374 q 272 383 303 383 q 343 383 378 368 q 414 352 440 326 q 467 300 482 264 q 497 228 497 188 q 497 147 482 112 q 467 77 440 50 q 414 24 378 9 q 343 -6 303 -6 q 272 -6 244 3 q 215 12 192 28 q 168 45 150 68 q 131 90 121 117 q 121 101 122 86 q 122 70 122 54 l 122 0 l 35 0 z m 483 188 q 483 225 469 258 q 455 291 430 316 q 406 341 373 355 q 340 369 303 369 q 265 369 232 355 q 200 341 175 316 q 150 291 136 258 q 122 225 122 188 q 122 150 136 118 q 150 85 175 60 q 200 36 232 22 q 265 8 303 8 q 340 8 373 22 q 406 36 430 60 q 455 85 469 118 q 483 150 483 188 z"},"%":{"x_min":0,"x_max":726,"ha":726,"o":"m 426 112 q 426 92 434 75 q 441 58 454 46 q 467 33 484 26 q 502 18 522 18 q 542 18 560 26 q 577 33 590 46 q 603 58 610 75 q 618 92 618 112 q 618 131 610 148 q 603 166 590 179 q 577 192 560 200 q 542 207 522 207 q 502 207 484 200 q 467 192 454 179 q 441 166 434 148 q 426 131 426 112 z m 522 4 q 499 4 479 12 q 459 21 444 36 q 429 50 420 70 q 412 90 412 113 q 412 135 420 155 q 429 175 444 190 q 459 204 479 212 q 499 221 522 221 q 544 221 564 212 q 584 204 599 190 q 614 175 623 155 q 632 135 632 113 q 632 90 623 70 q 614 50 599 36 q 584 21 564 12 q 544 4 522 4 z m 122 388 q 122 368 130 351 q 137 334 150 322 q 163 309 180 302 q 198 294 218 294 q 238 294 256 302 q 273 309 286 322 q 299 334 306 351 q 314 368 314 388 q 314 407 306 424 q 299 442 286 455 q 273 468 256 476 q 238 483 218 483 q 198 483 180 476 q 163 468 150 455 q 137 442 130 424 q 122 407 122 388 z m 218 280 q 195 280 175 288 q 155 297 140 312 q 125 326 116 346 q 108 366 108 389 q 108 411 116 431 q 125 451 140 466 q 155 480 175 488 q 195 497 218 497 q 240 497 260 488 q 280 480 295 466 q 310 451 319 431 q 328 411 328 389 q 328 366 319 346 q 310 326 295 312 q 280 297 260 288 q 240 280 218 280 z m 208 0 q 283 126 357 250 q 431 374 506 500 l 522 500 q 447 374 373 250 q 299 126 224 0 z"},"m":{"x_min":0,"x_max":800,"ha":800,"o":"m 591 14 l 670 14 l 670 277 q 668 313 644 340 q 619 366 575 368 q 542 368 512 358 q 482 347 459 328 q 436 309 422 283 q 407 257 406 226 l 406 14 l 487 14 l 487 0 l 313 0 l 313 14 l 392 14 l 392 277 q 390 313 366 340 q 341 366 297 368 q 263 368 232 357 q 202 346 178 326 q 155 307 142 280 q 128 252 128 220 l 128 14 l 209 14 l 209 0 l 35 0 l 35 14 l 114 14 l 114 361 l 39 361 l 39 375 l 122 375 l 124 322 q 124 309 124 300 q 125 290 125 277 q 145 324 189 353 q 233 382 290 382 q 339 382 370 354 q 400 327 405 282 q 426 327 470 354 q 513 382 568 382 q 621 382 652 351 q 682 320 684 270 l 684 14 l 765 14 l 765 0 l 591 0 z"},"#":{"x_min":0,"x_max":571,"ha":571,"o":"m 182 407 q 177 365 172 323 q 167 281 162 239 l 332 239 q 337 281 342 323 q 347 365 352 407 z m 304 0 q 311 57 317 112 q 323 168 330 225 l 160 225 q 153 168 147 112 q 141 57 134 0 l 120 0 q 127 57 133 112 q 139 168 146 225 l 29 225 q 29 229 30 232 q 30 235 30 239 l 148 239 q 153 281 158 323 q 163 365 168 407 l 52 407 q 52 411 52 414 q 53 417 53 421 l 170 421 l 197 643 l 211 643 l 184 421 l 354 421 l 381 643 l 395 643 l 368 421 l 504 421 q 504 417 504 414 q 503 411 503 407 l 366 407 q 361 365 356 323 q 351 281 346 239 l 481 239 q 481 235 480 232 q 480 229 480 225 l 344 225 q 337 168 331 112 q 325 57 318 0 z"},",":{"x_min":0,"x_max":200,"ha":200,"o":"m 127 86 q 105 34 84 -17 q 63 -68 41 -120 l 27 -120 q 47 -68 66 -17 q 84 34 104 86 z"},"n":{"x_min":0,"x_max":522,"ha":522,"o":"m 313 14 l 392 14 l 392 277 q 390 313 366 340 q 341 366 297 368 q 263 368 232 357 q 202 346 178 326 q 155 307 142 280 q 128 252 128 220 l 128 14 l 209 14 l 209 0 l 35 0 l 35 14 l 114 14 l 114 361 l 39 361 l 39 375 l 122 375 l 124 322 q 124 309 124 300 q 125 290 125 277 q 145 324 189 353 q 233 382 290 382 q 343 382 374 351 q 404 320 406 270 l 406 14 l 487 14 l 487 0 l 313 0 z"},"h":{"x_min":0,"x_max":522,"ha":522,"o":"m 313 14 l 392 14 l 392 277 q 390 313 366 340 q 341 366 297 368 q 263 368 232 357 q 202 346 178 326 q 155 307 142 280 q 128 252 128 220 l 128 14 l 209 14 l 209 0 l 35 0 l 35 14 l 114 14 l 114 736 l 41 736 l 41 750 l 128 750 l 128 322 l 125 277 q 145 324 189 353 q 233 382 290 382 q 343 382 374 351 q 404 320 406 270 l 406 14 l 487 14 l 487 0 l 313 0 z"},"z":{"x_min":0,"x_max":429,"ha":429,"o":"m 394 65 l 394 0 l 35 0 l 35 14 q 119 102 197 188 q 275 273 359 361 l 47 361 l 47 410 l 61 410 l 61 375 l 377 375 l 377 361 q 293 273 215 188 q 137 102 53 14 l 380 14 l 380 65 z"},"B":{"x_min":0,"x_max":516,"ha":516,"o":"m 35 14 l 106 14 l 106 686 l 35 686 l 35 700 l 251 700 q 296 700 334 690 q 371 680 398 659 q 425 638 440 604 q 454 571 454 525 q 454 463 423 416 q 392 369 327 352 q 357 346 385 332 q 413 318 434 296 q 456 274 468 245 q 481 216 481 180 q 481 135 463 102 q 445 68 416 46 q 386 23 348 12 q 310 0 269 0 l 35 0 z m 120 344 l 120 14 l 268 14 q 308 14 344 24 q 381 34 408 54 q 435 75 451 106 q 467 136 467 177 q 467 220 448 252 q 430 284 400 304 q 369 324 330 334 q 291 344 249 344 z m 120 686 l 120 358 l 267 358 q 347 358 394 405 q 440 452 440 528 q 440 570 427 600 q 414 630 390 649 q 367 668 334 677 q 302 686 263 686 z"},"K":{"x_min":0,"x_max":686,"ha":686,"o":"m 477 14 l 543 14 q 465 114 386 214 q 308 314 229 414 l 125 316 q 125 240 126 164 q 126 89 126 14 l 209 14 l 209 0 l 35 0 l 35 14 l 112 14 l 112 686 l 35 686 l 35 700 l 209 700 l 209 686 l 126 686 l 126 360 q 126 352 126 346 q 125 339 125 331 l 142 351 l 493 686 l 429 686 l 429 700 l 603 700 l 603 686 l 515 686 l 240 424 q 321 321 402 219 q 482 117 563 14 l 651 14 l 651 0 l 477 0 z"},"R":{"x_min":0,"x_max":569,"ha":569,"o":"m 35 14 l 106 14 l 106 686 l 35 686 l 35 700 l 246 700 q 275 700 310 690 q 345 680 375 659 q 405 638 426 604 q 446 570 446 522 q 446 453 407 406 q 368 360 294 346 l 450 14 l 534 14 l 534 0 l 442 0 l 279 344 q 256 341 232 341 l 120 341 l 120 14 l 209 14 l 209 0 l 35 0 z m 120 355 l 235 355 q 293 355 331 371 q 369 387 392 412 q 414 436 423 466 q 432 495 432 522 q 432 555 417 584 q 402 614 376 636 q 349 659 314 672 q 278 686 236 686 l 120 686 z"},"T":{"x_min":0,"x_max":623,"ha":623,"o":"m 225 14 l 304 14 l 304 686 l 49 686 l 49 546 l 35 546 l 35 700 l 588 700 l 588 546 l 574 546 l 574 686 l 318 686 l 318 14 l 399 14 l 399 0 l 225 0 z"},"P":{"x_min":0,"x_max":481,"ha":481,"o":"m 35 14 l 106 14 l 106 686 l 35 686 l 35 700 l 246 700 q 275 700 310 690 q 345 680 375 659 q 405 638 426 604 q 446 570 446 522 q 446 439 390 390 q 335 341 232 341 l 120 341 l 120 14 l 209 14 l 209 0 l 35 0 z m 120 355 l 235 355 q 293 355 331 371 q 369 387 392 412 q 414 436 423 466 q 432 495 432 522 q 432 555 417 584 q 402 614 376 636 q 349 659 314 672 q 278 686 236 686 l 120 686 z"},"|":{"x_min":0,"x_max":219,"ha":219,"o":"m 99 -232 l 99 700 l 113 700 l 113 -232 z"},"t":{"x_min":0,"x_max":300,"ha":300,"o":"m 124 619 l 138 619 l 138 375 l 265 375 l 265 361 l 138 361 l 138 14 l 225 14 l 225 0 l 124 0 l 124 361 l 35 361 l 35 375 l 124 375 z"},"M":{"x_min":0,"x_max":961,"ha":961,"o":"m 821 700 l 921 700 l 921 686 l 844 686 l 844 14 l 926 14 l 926 0 l 752 0 l 752 14 l 830 14 l 830 645 l 831 690 l 822 678 q 811 663 788 634 q 765 604 736 566 q 706 527 672 482 q 638 437 604 392 q 569 347 536 304 q 504 262 478 228 q 383 352 300 461 q 216 570 134 677 l 125 690 q 125 679 126 668 q 126 656 126 645 l 126 14 l 209 14 l 209 0 l 35 0 l 35 14 l 112 14 l 112 686 l 35 686 l 35 700 l 135 700 q 201 614 264 532 q 291 497 320 460 q 348 422 376 385 q 404 348 430 314 q 457 280 478 253 q 564 364 650 476 q 735 589 821 700 z"},"g":{"x_min":0,"x_max":533,"ha":533,"o":"m 414 375 l 498 375 l 498 361 l 424 361 l 424 -18 q 424 -74 410 -116 q 395 -159 370 -188 q 344 -217 310 -233 q 277 -249 239 -250 q 198 -248 156 -236 q 114 -223 88 -190 l 101 -183 q 125 -213 164 -224 q 203 -236 239 -236 q 273 -236 304 -221 q 336 -206 359 -178 q 382 -150 396 -110 q 410 -71 410 -22 l 410 54 q 410 70 410 86 q 411 101 411 117 q 400 90 382 68 q 364 45 340 28 q 317 12 288 3 q 260 -6 229 -6 q 188 -6 153 9 q 118 24 92 50 q 65 77 50 112 q 35 147 35 188 q 35 228 50 264 q 65 300 92 326 q 118 352 153 368 q 188 383 229 383 q 291 383 340 348 q 388 314 410 260 q 410 289 411 318 q 412 346 414 375 z m 49 188 q 49 150 63 118 q 77 85 102 60 q 126 36 158 22 q 191 8 229 8 q 266 8 299 22 q 332 36 357 60 q 382 85 396 118 q 410 150 410 188 q 410 225 396 258 q 382 291 357 316 q 332 341 299 355 q 266 369 229 369 q 191 369 158 355 q 126 341 102 316 q 77 291 63 258 q 49 225 49 188 z"},"j":{"x_min":0,"x_max":166,"ha":166,"o":"m 35 375 l 131 375 l 131 -7 q 131 -64 116 -108 q 100 -151 74 -180 l 62 -171 q 87 -143 102 -102 q 117 -62 117 -11 l 117 361 l 35 361 z m 104 500 q 104 508 110 514 q 116 520 124 520 q 132 520 138 514 q 144 508 144 500 q 144 492 138 486 q 132 480 124 480 q 116 480 110 486 q 104 492 104 500 z"},"i":{"x_min":0,"x_max":244,"ha":244,"o":"m 35 14 l 117 14 l 117 361 l 35 361 l 35 375 l 131 375 l 131 14 l 209 14 l 209 0 l 35 0 z m 104 500 q 104 508 110 514 q 116 520 124 520 q 132 520 138 514 q 144 508 144 500 q 144 492 138 486 q 132 480 124 480 q 116 480 110 486 q 104 492 104 500 z"},"y":{"x_min":0,"x_max":590,"ha":590,"o":"m 92 -236 l 173 -236 q 202 -178 231 -120 q 260 -61 289 -4 q 243 87 198 178 q 152 269 107 361 l 35 361 l 35 375 l 196 375 l 196 361 l 125 361 q 168 273 211 187 q 254 101 298 14 q 340 97 384 185 q 427 273 471 361 l 416 361 l 416 375 l 555 375 l 555 361 l 489 361 q 414 211 340 62 q 267 -86 192 -236 l 266 -236 l 266 -250 l 92 -250 z"},"@":{"x_min":0,"x_max":990,"ha":990,"o":"m 310 188 q 310 150 324 118 q 338 85 362 60 q 387 36 420 22 q 452 8 490 8 q 527 8 560 22 q 593 36 618 60 q 643 85 657 118 q 671 150 671 188 q 671 225 657 258 q 643 291 618 316 q 593 341 560 355 q 527 369 490 369 q 452 369 420 355 q 387 341 362 316 q 338 291 324 258 q 310 225 310 188 z m 885 188 q 883 129 871 92 q 859 55 840 34 q 821 14 798 7 q 774 0 749 0 l 671 0 l 671 54 q 671 70 672 86 q 672 101 672 117 q 661 90 643 68 q 625 45 602 28 q 578 12 550 3 q 521 -6 490 -6 q 449 -6 414 9 q 379 24 352 50 q 326 77 311 112 q 296 147 296 188 q 296 228 311 264 q 326 300 352 326 q 379 352 414 368 q 449 383 490 383 q 552 383 600 348 q 649 314 671 260 q 671 289 672 318 q 673 346 675 375 l 685 375 l 685 13 l 756 13 q 810 13 840 55 q 869 97 871 188 q 871 267 841 337 q 811 407 759 459 q 707 511 638 541 q 568 571 489 571 q 410 571 340 541 q 271 511 220 459 q 168 407 138 337 q 108 267 108 188 q 108 109 138 40 q 168 -30 220 -82 q 271 -133 340 -163 q 410 -193 489 -193 q 551 -193 606 -174 q 661 -155 708 -123 q 710 -126 712 -128 q 715 -131 717 -134 q 667 -168 611 -188 q 555 -207 489 -207 q 407 -207 335 -176 q 263 -145 210 -91 q 156 -37 125 35 q 94 107 94 189 q 94 271 125 343 q 156 415 210 469 q 263 523 335 554 q 407 585 489 585 q 571 585 643 554 q 715 523 769 469 q 823 415 854 342 q 885 270 885 188 z"},".":{"x_min":0,"x_max":163,"ha":163,"o":"m 66 20 q 66 28 72 34 q 78 40 86 40 q 94 40 100 34 q 106 28 106 20 q 106 12 100 6 q 94 0 86 0 q 78 0 72 6 q 66 12 66 20 z"},"p":{"x_min":0,"x_max":532,"ha":532,"o":"m 42 -236 l 108 -236 l 108 361 l 35 361 l 35 375 l 118 375 q 118 346 120 316 q 121 286 121 257 q 142 312 191 346 q 240 381 303 381 q 343 381 378 366 q 414 351 440 324 q 467 298 482 262 q 497 227 497 187 q 497 146 482 110 q 467 75 440 49 q 414 23 378 8 q 343 -8 303 -8 q 272 -8 244 1 q 215 10 192 26 q 168 43 150 66 q 132 88 122 115 q 122 101 122 88 q 123 75 123 61 l 123 -236 l 216 -236 l 216 -250 l 42 -250 z m 483 187 q 483 224 469 257 q 455 290 430 314 q 406 339 373 353 q 340 367 303 367 q 265 367 232 353 q 200 339 175 314 q 150 290 136 257 q 122 224 122 187 q 122 149 136 116 q 150 84 175 59 q 200 34 232 20 q 265 6 303 6 q 340 6 373 20 q 406 34 430 59 q 455 84 469 116 q 483 149 483 187 z"},"X":{"x_min":0,"x_max":710,"ha":710,"o":"m 35 700 l 209 700 l 209 686 l 150 686 q 201 609 250 533 q 299 457 349 381 l 357 368 l 365 381 l 560 686 l 501 686 l 501 700 l 675 700 l 675 686 l 576 686 q 523 602 470 520 q 418 439 365 356 q 421 269 476 184 q 532 100 588 14 l 675 14 l 675 0 l 501 0 l 501 14 l 571 14 l 397 279 q 386 296 376 314 q 365 332 353 348 l 345 335 q 294 254 242 174 q 190 95 139 14 l 209 14 l 209 0 l 35 0 l 35 14 l 124 14 l 345 360 l 134 686 l 35 686 z"},"*":{"x_min":0,"x_max":335,"ha":335,"o":"m 182 575 q 210 559 238 543 q 266 527 294 511 l 285 496 l 174 562 q 173 530 173 498 q 173 466 172 434 l 158 434 l 158 561 q 130 545 103 530 q 76 514 48 498 l 39 513 l 150 576 l 39 642 q 41 645 42 648 q 44 651 46 654 q 74 637 102 622 q 130 606 158 589 l 158 720 l 176 720 q 175 687 175 654 q 175 622 174 589 q 203 605 231 621 q 259 637 288 653 q 290 650 292 647 q 293 644 295 641 q 266 624 238 608 q 211 592 182 575 z"},"Y":{"x_min":0,"x_max":718,"ha":718,"o":"m 273 14 l 352 14 l 352 262 q 288 368 224 474 q 161 580 97 686 l 35 686 l 35 700 l 209 700 l 209 686 l 114 686 q 173 588 232 492 q 290 396 347 298 l 359 272 l 360 272 l 371 298 l 602 686 l 509 686 l 509 700 l 683 700 l 683 686 l 619 686 q 556 579 492 474 q 429 368 366 262 l 366 14 l 447 14 l 447 0 l 273 0 z"},"c":{"x_min":0,"x_max":387,"ha":387,"o":"m 352 37 q 326 17 295 6 q 264 -6 229 -6 q 188 -6 153 9 q 118 24 92 50 q 65 77 50 112 q 35 147 35 188 q 35 228 50 264 q 65 300 92 326 q 118 352 153 368 q 188 383 229 383 q 264 383 296 372 q 327 360 352 340 l 352 253 l 338 253 l 338 332 q 315 349 288 359 q 260 369 229 369 q 191 369 158 355 q 126 341 102 316 q 77 291 63 258 q 49 225 49 188 q 49 150 63 118 q 77 85 102 60 q 126 36 158 22 q 191 8 229 8 q 261 8 290 18 q 319 29 342 47 z"},"!":{"x_min":0,"x_max":201,"ha":201,"o":"m 100 36 q 93 36 87 42 q 81 48 81 56 q 81 65 87 70 q 93 76 100 76 q 108 76 114 70 q 120 65 120 56 q 120 48 114 42 q 108 36 100 36 z m 93 750 l 107 750 l 107 166 l 93 166 z"},"/":{"x_min":0,"x_max":322,"ha":322,"o":"m 17 -19 q 87 171 156 358 q 225 546 295 736 l 309 736 q 239 546 170 358 q 101 171 31 -19 z"},"[":{"x_min":0,"x_max":338,"ha":338,"o":"m 83 -149 l 83 746 l 246 746 l 246 732 l 99 732 l 99 -135 l 246 -135 l 246 -149 z"},"6":{"x_min":0,"x_max":520,"ha":520,"o":"m 63 193 q 63 154 78 120 q 93 86 118 60 q 144 35 179 20 q 214 6 253 6 q 292 6 327 20 q 362 35 388 60 q 414 86 429 120 q 444 154 444 193 q 444 232 429 266 q 414 300 388 326 q 362 351 327 366 q 292 381 253 381 q 214 381 179 366 q 144 351 118 326 q 93 300 78 266 q 63 232 63 193 z m 50 193 q 50 266 81 328 q 112 391 160 445 q 208 499 267 546 q 326 592 382 633 q 384 630 387 626 q 390 623 392 620 q 325 576 274 533 q 223 490 186 450 q 150 411 126 376 q 103 342 91 314 q 119 351 161 373 q 203 395 254 395 q 296 395 334 379 q 371 363 398 336 q 426 308 442 272 q 458 235 458 193 q 458 151 442 114 q 426 78 398 51 q 371 24 334 8 q 296 -8 254 -8 q 212 -8 174 8 q 137 24 110 51 q 82 78 66 114 q 50 151 50 193 z"},"r":{"x_min":0,"x_max":326,"ha":326,"o":"m 35 14 l 114 14 l 114 361 l 39 361 l 39 375 l 122 375 l 124 322 q 124 309 124 300 q 125 290 125 277 q 146 325 190 352 q 234 380 291 382 l 291 368 q 258 367 228 356 q 199 344 176 324 q 154 305 141 278 q 128 251 128 220 l 128 14 l 209 14 l 209 0 l 35 0 z"},"2":{"x_min":0,"x_max":495,"ha":495,"o":"m 89 14 l 435 14 l 435 127 l 449 127 l 449 0 l 53 0 q 117 62 178 122 q 239 183 286 240 q 332 298 360 352 q 389 405 389 452 q 389 508 373 545 q 357 582 333 604 q 309 626 281 635 q 253 644 228 644 q 178 644 146 626 q 115 609 96 582 q 78 556 71 526 q 64 495 64 469 q 64 398 104 355 l 95 347 q 74 371 62 400 q 50 428 50 469 q 50 509 62 544 q 73 578 96 604 q 118 629 152 644 q 185 658 228 658 q 267 658 299 644 q 331 629 354 603 q 378 577 390 542 q 403 506 403 464 q 403 406 374 348 q 344 291 298 235 q 252 179 196 124 q 141 68 89 14 z"},"{":{"x_min":0,"x_max":272,"ha":272,"o":"m 30 287 l 30 311 q 54 312 70 326 q 85 339 94 359 q 103 379 106 402 q 109 426 109 446 l 109 628 q 109 673 116 698 q 124 722 136 732 q 148 743 164 744 q 179 746 195 746 l 232 746 l 232 732 l 175 732 q 144 732 134 706 q 123 680 123 620 l 123 470 q 123 423 118 393 q 112 363 103 344 q 94 326 82 316 q 70 306 57 299 q 70 291 82 281 q 94 271 103 252 q 112 233 118 204 q 123 174 123 128 l 123 -22 q 123 -82 134 -108 q 144 -134 175 -134 l 232 -134 l 232 -148 l 195 -148 q 175 -148 159 -146 q 143 -144 132 -130 q 121 -116 115 -84 q 109 -53 109 6 l 109 152 q 109 172 106 196 q 103 219 94 239 q 85 259 70 272 q 54 286 30 287 z"},"9":{"x_min":0,"x_max":525,"ha":525,"o":"m 450 432 q 450 471 435 505 q 420 539 394 564 q 369 590 334 604 q 299 619 260 619 q 221 619 186 604 q 151 590 125 564 q 99 539 84 505 q 69 471 69 432 q 69 393 84 358 q 99 324 125 298 q 151 273 186 258 q 221 244 260 244 q 299 244 334 258 q 369 273 394 298 q 420 324 435 358 q 450 393 450 432 z m 463 432 q 463 359 432 296 q 401 234 353 180 q 305 126 246 80 q 187 33 131 -8 q 129 -5 126 -2 q 123 2 121 5 q 188 49 239 92 q 290 135 326 174 q 363 214 386 248 q 410 283 422 311 q 394 274 352 252 q 310 230 259 230 q 217 230 180 246 q 142 262 114 290 q 87 317 71 354 q 55 390 55 432 q 55 474 71 510 q 87 547 114 574 q 142 601 180 617 q 217 633 259 633 q 301 633 338 617 q 376 601 404 574 q 431 547 447 510 q 463 474 463 432 z"}," ":{"x_min":0,"x_max":300,"ha":300,"o":""},"I":{"x_min":0,"x_max":244,"ha":244,"o":"m 35 14 l 112 14 l 112 686 l 35 686 l 35 700 l 209 700 l 209 686 l 126 686 l 126 14 l 209 14 l 209 0 l 35 0 z"},"H":{"x_min":0,"x_max":716,"ha":716,"o":"m 507 700 l 681 700 l 681 686 l 604 686 l 604 14 l 681 14 l 681 0 l 507 0 l 507 14 l 590 14 l 590 346 l 126 346 l 126 14 l 209 14 l 209 0 l 35 0 l 35 14 l 112 14 l 112 686 l 35 686 l 35 700 l 209 700 l 209 686 l 126 686 l 126 360 l 590 360 l 590 686 l 507 686 z"},"4":{"x_min":0,"x_max":505,"ha":505,"o":"m 312 14 l 389 14 l 389 183 l 37 183 l 403 658 l 403 197 l 500 197 l 500 183 l 403 183 l 403 14 l 486 14 l 486 0 l 312 0 z m 389 617 l 67 197 l 389 197 z"},"~":{"x_min":0,"x_max":489,"ha":489,"o":"m 265 497 q 249 515 237 521 q 225 527 211 527 q 203 527 192 524 q 182 522 172 516 q 162 510 154 500 q 147 489 145 472 q 142 473 138 473 q 135 473 132 474 q 133 492 141 505 q 149 518 160 526 q 172 534 186 538 q 200 541 214 541 q 234 541 250 530 q 267 520 283 503 q 299 485 311 479 q 323 473 337 473 q 345 473 356 476 q 366 478 376 484 q 386 490 394 500 q 401 511 403 528 q 406 527 410 527 q 413 527 416 526 q 415 508 407 495 q 399 482 388 474 q 376 466 362 462 q 348 459 334 459 q 314 459 298 470 q 281 480 265 497 z"},"D":{"x_min":0,"x_max":632,"ha":632,"o":"m 35 14 l 108 14 l 108 686 l 35 686 l 35 700 l 245 700 q 317 700 381 676 q 445 651 493 606 q 541 560 569 495 q 597 430 597 350 q 597 291 576 229 q 556 167 510 116 q 464 65 390 32 q 317 0 211 0 l 35 0 z m 122 686 l 122 14 l 220 14 q 319 14 388 46 q 458 77 502 126 q 545 174 564 234 q 584 293 584 350 q 584 427 558 490 q 531 552 485 596 q 439 639 378 662 q 318 686 251 686 z"},"^":{"x_min":0,"x_max":470,"ha":470,"o":"m 232 660 q 262 615 292 570 q 322 524 352 479 l 336 479 q 310 517 284 556 q 258 595 232 633 q 206 595 180 556 q 154 517 128 479 l 112 479 q 142 524 172 570 q 202 615 232 660 z"},"0":{"x_min":0,"x_max":616,"ha":616,"o":"m 36 327 q 36 375 50 432 q 65 490 97 540 q 129 591 181 624 q 233 658 308 658 q 382 658 433 624 q 484 589 515 538 q 546 488 560 430 q 573 372 573 324 q 573 255 551 194 q 529 134 492 89 q 455 44 406 18 q 356 -7 301 -7 q 246 -7 198 20 q 149 46 113 91 q 77 136 56 196 q 36 257 36 327 z m 51 328 q 51 255 72 196 q 93 137 128 95 q 163 53 209 30 q 255 7 303 7 q 351 7 397 29 q 443 51 479 92 q 515 133 537 192 q 559 251 559 323 q 559 396 540 456 q 521 515 487 556 q 453 598 407 621 q 361 644 307 644 q 253 644 206 622 q 160 601 126 560 q 91 518 71 460 q 51 401 51 328 z"},"F":{"x_min":0,"x_max":557,"ha":557,"o":"m 35 14 l 117 14 l 117 686 l 35 686 l 35 700 l 522 700 l 522 546 l 508 546 l 508 686 l 131 686 l 131 360 l 483 360 l 483 346 l 131 346 l 131 14 l 209 14 l 209 0 l 35 0 z"},"`":{"x_min":0,"x_max":200,"ha":200,"o":"m 2 612 q 25 579 47 546 q 69 512 92 479 l 76 479 q 53 512 31 546 q 9 579 -14 612 z"},"k":{"x_min":0,"x_max":487,"ha":487,"o":"m 278 14 l 351 14 q 312 67 272 119 q 233 171 195 225 l 121 155 l 121 14 l 209 14 l 209 0 l 35 0 l 35 14 l 107 14 l 107 736 l 34 736 l 34 750 l 121 750 l 121 176 l 319 361 l 243 361 l 243 375 l 417 375 l 417 361 l 338 361 q 320 343 304 328 q 288 313 273 298 q 258 283 242 268 q 226 253 207 235 q 247 179 288 124 q 328 69 369 14 l 452 14 l 452 0 l 278 0 z"},"u":{"x_min":0,"x_max":518,"ha":518,"o":"m 35 375 l 128 375 l 128 98 q 130 62 154 36 q 179 9 223 7 q 257 7 288 18 q 318 29 341 48 q 364 68 378 96 q 392 123 392 155 l 392 361 l 313 361 l 313 375 l 406 375 l 406 14 l 483 14 l 483 0 l 400 0 l 397 53 l 395 98 q 375 50 330 22 q 286 -7 230 -7 q 177 -7 146 24 q 116 55 114 105 l 114 361 l 35 361 z"},"]":{"x_min":0,"x_max":342,"ha":342,"o":"m 251 746 l 251 -149 l 88 -149 l 88 -135 l 235 -135 l 235 732 l 88 732 l 88 746 z"},"U":{"x_min":0,"x_max":674,"ha":674,"o":"m 35 700 l 209 700 l 209 686 l 126 686 l 126 229 q 126 175 142 134 q 157 92 185 64 q 213 35 252 20 q 291 6 337 6 q 382 6 421 20 q 460 35 488 64 q 516 92 532 134 q 548 175 548 229 l 548 686 l 465 686 l 465 700 l 639 700 l 639 686 l 562 686 l 562 226 q 562 169 544 125 q 527 81 497 52 q 467 22 426 7 q 385 -8 337 -8 q 289 -8 248 7 q 206 22 176 52 q 146 81 129 125 q 112 169 112 226 l 112 686 l 35 686 z"},"o":{"x_min":0,"x_max":461,"ha":461,"o":"m 36 188 q 36 228 51 264 q 66 300 92 326 q 119 353 154 368 q 189 384 230 384 q 270 384 306 368 q 342 353 368 326 q 395 300 410 264 q 426 228 426 188 q 426 147 410 112 q 395 77 368 50 q 342 24 306 9 q 270 -6 230 -6 q 189 -6 154 9 q 119 24 92 50 q 66 77 51 112 q 36 147 36 188 z m 50 188 q 50 150 64 118 q 78 85 102 60 q 127 36 160 22 q 192 8 230 8 q 267 8 300 22 q 333 36 358 60 q 383 85 397 118 q 411 150 411 188 q 411 225 397 258 q 383 291 358 316 q 333 341 300 355 q 267 369 230 369 q 192 369 160 355 q 127 341 102 316 q 78 291 64 258 q 50 225 50 188 z"},"N":{"x_min":0,"x_max":840,"ha":840,"o":"m 35 14 l 112 14 l 112 686 l 35 686 l 35 700 l 138 700 l 693 28 l 712 2 l 709 34 l 709 686 l 631 686 l 631 700 l 805 700 l 805 686 l 723 686 l 723 -32 l 142 670 l 124 690 l 126 664 l 126 14 l 209 14 l 209 0 l 35 0 z"},"+":{"x_min":0,"x_max":543,"ha":543,"o":"m 259 51 l 259 225 l 86 225 l 86 239 l 259 239 l 259 411 l 273 411 l 273 239 l 446 239 l 446 225 l 273 225 l 273 51 z"},"G":{"x_min":0,"x_max":609,"ha":609,"o":"m 574 298 l 574 40 q 534 17 488 4 q 443 -10 392 -10 q 318 -10 253 18 q 188 46 140 94 q 91 143 63 208 q 35 273 35 347 q 35 421 63 486 q 91 552 140 600 q 188 649 253 678 q 318 706 392 706 q 443 706 488 693 q 534 680 575 656 l 567 644 q 529 667 484 680 q 440 692 392 692 q 321 692 258 664 q 196 637 150 590 q 103 543 76 480 q 49 417 49 346 q 49 275 76 213 q 103 151 149 104 q 195 58 257 31 q 319 4 389 4 q 436 4 479 16 q 522 27 560 49 l 560 284 l 388 284 l 388 298 z"},"q":{"x_min":0,"x_max":532,"ha":532,"o":"m 321 -236 l 409 -236 l 409 61 q 409 75 410 88 q 410 101 410 115 q 399 88 382 66 q 364 43 340 26 q 317 10 288 1 q 260 -8 229 -8 q 188 -8 153 8 q 118 23 92 49 q 65 75 50 110 q 35 146 35 187 q 35 227 50 262 q 65 298 92 324 q 118 351 153 366 q 188 381 229 381 q 292 381 341 346 q 390 312 411 257 q 411 286 412 316 q 414 346 414 375 l 497 375 l 497 361 l 424 361 l 424 -236 l 495 -236 l 495 -250 l 321 -250 z m 49 187 q 49 149 63 116 q 77 84 102 59 q 126 34 158 20 q 191 6 229 6 q 266 6 299 20 q 332 34 357 59 q 382 84 396 116 q 410 149 410 187 q 410 224 396 257 q 382 290 357 314 q 332 339 299 353 q 266 367 229 367 q 191 367 158 353 q 126 339 102 314 q 77 290 63 257 q 49 224 49 187 z"},"d":{"x_min":0,"x_max":532,"ha":532,"o":"m 410 54 q 410 70 410 86 q 411 101 411 117 q 400 90 382 68 q 364 45 340 28 q 317 12 288 3 q 260 -6 229 -6 q 188 -6 153 9 q 118 24 92 50 q 65 77 50 112 q 35 147 35 188 q 35 228 50 264 q 65 300 92 326 q 118 352 153 368 q 188 383 229 383 q 260 383 288 374 q 317 365 340 348 q 364 332 382 310 q 399 287 410 260 l 410 379 l 410 736 l 337 736 l 337 750 l 424 750 l 424 14 l 497 14 l 497 0 l 410 0 z m 49 188 q 49 150 63 118 q 77 85 102 60 q 126 36 158 22 q 191 8 229 8 q 266 8 299 22 q 332 36 357 60 q 382 85 396 118 q 410 150 410 188 q 410 225 396 258 q 382 291 357 316 q 332 341 299 355 q 266 369 229 369 q 191 369 158 355 q 126 341 102 316 q 77 291 63 258 q 49 225 49 188 z"},"1":{"x_min":0,"x_max":249,"ha":249,"o":"m 67 14 l 147 14 l 147 636 l 34 636 l 34 650 l 161 650 l 161 14 l 241 14 l 241 0 l 67 0 z"},"5":{"x_min":0,"x_max":543,"ha":543,"o":"m 430 650 l 430 568 l 416 568 l 416 636 l 157 636 l 157 372 q 180 383 204 389 q 229 395 255 395 q 297 395 334 380 q 372 364 400 337 q 427 310 444 274 q 460 237 460 195 q 460 153 444 116 q 427 79 400 52 q 372 24 334 8 q 297 -8 255 -8 q 214 -8 178 7 q 143 22 115 48 l 126 58 q 150 33 182 20 q 215 6 253 6 q 293 6 328 21 q 363 36 389 62 q 415 88 430 122 q 446 157 446 195 q 446 234 430 268 q 415 301 389 326 q 363 352 328 366 q 293 381 253 381 q 218 381 189 370 q 160 358 143 341 l 143 650 z"}}}
